<!DOCTYPE svg PUBLIC "-//W3C//DTD SVG 20010904//EN" "http://www.w3.org/TR/2001/REC-SVG-20010904/DTD/svg10.dtd">
<svg version="1.0" xmlns="http://www.w3.org/2000/svg" width="1600px" height="1200px" viewBox="0 0 16000 12000" preserveAspectRatio="xMidYMid meet">
<g id="layer101" fill="#b0804c" stroke="none">
 <path d="M3682 10063 c-34 -30 -60 -87 -54 -119 7 -39 47 -100 73 -115 47 -25 151 -158 341 -436 48 -71 108 -148 133 -173 25 -24 70 -80 99 -125 28 -44 60 -91 69 -105 10 -14 40 -59 69 -100 80 -118 108 -169 108 -198 0 -16 6 -34 12 -40 8 -8 12 -46 11 -114 -1 -75 4 -115 18 -156 10 -30 16 -59 12 -66 -4 -6 -9 -18 -10 -26 -12 -72 -24 -257 -28 -410 -1 -52 -3 -97 -5 -100 -1 -3 -4 -30 -5 -60 -2 -30 -6 -98 -9 -150 -4 -52 -6 -132 -6 -178 0 -78 -2 -85 -28 -107 -17 -14 -32 -20 -42 -16 -8 4 -32 9 -52 10 -33 1 -45 -5 -95 -54 -32 -31 -59 -56 -61 -55 -3 1 -41 -25 -80 -56 -40 -30 -101 -64 -116 -64 -8 0 -36 -18 -62 -40 -27 -23 -60 -43 -74 -47 -14 -3 -37 -14 -52 -24 -14 -11 -35 -19 -47 -19 -11 0 -24 -6 -28 -14 -12 -20 -75 -56 -99 -56 -11 0 -29 -9 -38 -19 -10 -11 -23 -18 -29 -15 -7 2 -28 -6 -47 -18 -19 -12 -48 -29 -65 -38 -16 -9 -39 -21 -50 -27 -11 -6 -55 -29 -98 -50 -43 -21 -93 -46 -110 -55 -18 -9 -39 -17 -48 -18 -8 0 -26 -11 -38 -24 -14 -15 -32 -23 -47 -21 -14 1 -34 -7 -48 -20 -23 -22 -61 -37 -100 -41 -11 -1 -25 -10 -33 -20 -8 -11 -25 -18 -44 -18 -20 1 -33 -5 -40 -18 -8 -15 -13 -17 -25 -7 -8 6 -14 10 -15 8 0 -2 -2 -14 -5 -27 -2 -13 -11 -36 -19 -52 -22 -43 -19 -61 25 -111 37 -44 42 -47 82 -43 78 7 112 19 124 42 14 29 55 72 67 72 5 0 25 13 44 30 18 17 42 30 52 30 10 0 24 7 31 16 13 15 70 44 99 50 7 1 22 12 33 23 21 23 81 51 109 51 10 0 23 8 28 19 10 18 114 76 138 76 6 0 19 8 30 17 10 9 95 55 188 103 94 48 174 91 179 96 6 5 19 9 30 9 11 0 27 6 35 13 9 8 41 24 71 36 29 13 71 34 92 47 21 13 44 24 52 24 9 0 20 9 26 20 6 11 18 20 27 20 9 0 41 16 71 37 48 31 56 34 66 21 13 -17 9 -180 -8 -328 -2 -19 -9 -109 -16 -200 -7 -91 -16 -170 -21 -176 -6 -7 -11 -34 -13 -60 -7 -90 -41 -134 -105 -134 -21 0 -40 -3 -44 -6 -3 -3 -27 -7 -54 -9 -26 -2 -61 -9 -78 -16 -16 -7 -33 -13 -37 -13 -3 -1 -10 -4 -14 -8 -4 -5 -17 -8 -29 -8 -13 0 -28 -7 -35 -15 -7 -9 -29 -15 -54 -15 -34 0 -51 -7 -83 -35 -23 -19 -48 -35 -56 -35 -17 0 -96 -76 -174 -167 -29 -34 -69 -96 -89 -138 -20 -43 -49 -92 -65 -109 -19 -22 -29 -47 -33 -79 -3 -26 -11 -57 -16 -68 -6 -11 -12 -30 -14 -42 -4 -31 -18 -80 -26 -92 -4 -5 -8 -48 -8 -95 -1 -47 -5 -103 -11 -125 -9 -37 -7 -198 3 -303 4 -42 2 -45 -30 -58 -19 -8 -49 -35 -68 -62 -31 -41 -34 -52 -29 -89 3 -26 1 -48 -6 -57 -6 -7 -9 -22 -5 -32 15 -47 60 -132 86 -165 27 -35 92 -155 93 -172 0 -5 8 -14 18 -21 9 -7 17 -18 17 -25 0 -26 73 -121 93 -121 10 0 56 -36 127 -99 19 -18 54 -48 77 -69 24 -20 43 -42 43 -49 0 -16 71 -73 90 -73 8 0 28 -7 44 -15 15 -8 33 -15 40 -15 13 0 66 -47 66 -58 0 -15 101 -85 133 -92 21 -4 51 0 86 12 29 10 57 15 62 12 5 -3 26 0 48 6 34 9 49 7 98 -11 32 -11 70 -22 86 -23 15 -2 30 -6 33 -9 4 -3 16 0 28 6 11 7 30 12 41 12 11 0 32 6 47 15 48 28 248 174 248 181 0 4 21 15 48 25 26 9 57 27 69 40 12 13 31 24 43 24 12 0 33 6 48 14 29 15 71 56 57 56 -4 0 10 13 32 29 39 28 50 50 59 115 2 16 8 34 14 40 5 5 10 16 10 23 0 7 18 36 40 65 22 29 40 58 40 65 0 13 55 55 62 47 14 -13 55 92 46 117 -8 22 28 84 55 96 16 8 31 29 43 60 9 26 21 53 26 60 15 19 -29 124 -71 168 -38 40 -38 40 -36 118 0 42 6 82 12 88 7 7 8 22 3 39 -5 16 -6 31 -3 33 2 3 -2 18 -10 34 -8 15 -13 44 -12 63 1 19 -3 46 -11 60 -7 14 -18 54 -23 90 -19 116 -21 125 -35 155 -8 17 -25 59 -38 93 -12 35 -34 77 -48 93 -14 15 -50 58 -80 95 -30 37 -86 92 -125 123 -38 31 -94 77 -123 103 -29 27 -59 48 -66 48 -8 0 -28 11 -44 25 -17 14 -35 25 -42 25 -6 0 -26 11 -44 25 -18 14 -42 25 -52 25 -11 0 -24 4 -30 8 -5 5 -42 17 -83 27 -41 10 -82 26 -91 35 -22 22 -31 59 -20 81 5 9 14 70 19 135 6 66 12 139 15 164 2 25 7 76 11 114 3 39 9 75 13 80 4 6 5 34 3 62 -1 29 2 54 7 58 5 3 7 31 5 61 -3 31 -2 67 1 81 6 23 7 24 34 9 15 -9 41 -24 57 -35 17 -11 37 -23 45 -26 8 -4 36 -24 62 -45 26 -22 51 -39 56 -39 5 0 34 -21 65 -47 102 -87 163 -132 191 -143 16 -6 61 -40 101 -75 40 -36 76 -65 80 -65 7 0 91 -52 218 -135 34 -22 88 -53 119 -67 42 -20 68 -42 98 -81 45 -60 63 -69 130 -67 49 2 84 19 116 58 50 61 -25 171 -121 177 -17 1 -59 21 -94 44 -35 23 -83 51 -108 62 -24 11 -80 45 -125 75 -44 29 -84 54 -88 54 -4 0 -14 7 -21 17 -8 9 -36 26 -64 39 -27 12 -61 34 -75 49 -24 26 -105 92 -155 125 -43 28 -100 75 -156 125 -31 28 -87 73 -125 100 -65 45 -124 99 -124 112 0 3 -16 22 -36 41 -46 45 -57 76 -49 137 4 28 6 64 5 80 -1 17 -1 37 -1 45 1 8 3 31 4 50 1 19 5 40 10 47 4 6 7 24 7 40 -1 94 8 221 19 241 6 12 10 26 7 31 -3 5 1 82 9 172 20 227 23 247 31 260 3 6 8 30 10 52 4 56 50 87 81 56 8 -8 15 -3 27 19 8 16 22 32 30 35 9 4 22 23 31 43 15 36 168 195 199 207 9 4 16 13 16 21 0 9 10 21 23 27 27 15 87 71 87 83 0 4 25 33 55 62 30 30 55 59 55 64 0 6 5 10 10 10 6 0 37 26 69 58 32 31 96 90 142 131 45 41 92 88 104 105 11 17 31 32 43 34 13 2 27 13 31 25 10 24 147 160 198 195 17 12 40 22 50 22 10 0 37 18 58 40 37 37 39 44 37 93 -1 45 -6 56 -33 79 -38 32 -63 37 -131 27 -55 -9 -89 -37 -139 -114 -10 -16 -72 -86 -136 -154 -131 -138 -194 -205 -236 -250 -16 -17 -35 -31 -42 -31 -8 0 -22 -11 -31 -25 -22 -34 -131 -144 -177 -179 -20 -16 -37 -33 -37 -38 0 -12 -70 -80 -150 -145 -30 -25 -60 -55 -67 -67 -6 -12 -22 -27 -35 -33 -13 -5 -47 -22 -77 -36 -48 -24 -56 -25 -80 -12 -51 27 -130 118 -221 255 -24 36 -55 79 -69 96 -65 78 -120 153 -145 196 -14 26 -35 52 -45 58 -11 5 -37 36 -58 67 -21 32 -64 94 -95 138 -30 44 -66 100 -78 125 -13 25 -38 63 -57 85 -19 22 -52 77 -75 123 -53 108 -111 162 -173 162 -26 0 -51 -7 -63 -17z m715 -4088 c7 -2 15 0 18 5 7 11 95 1 112 -12 7 -5 16 -7 21 -4 5 3 24 1 43 -5 19 -6 43 -12 54 -14 28 -4 101 -42 158 -82 26 -18 50 -33 53 -33 24 0 336 -290 332 -308 -1 -4 6 -23 14 -42 9 -19 24 -52 32 -72 9 -20 21 -40 26 -43 6 -3 10 -18 10 -33 1 -15 7 -45 16 -67 8 -22 17 -89 19 -149 3 -60 9 -114 13 -120 12 -17 8 -78 -8 -106 -7 -14 -14 -51 -16 -83 -2 -44 -8 -65 -23 -81 -12 -12 -21 -31 -21 -42 0 -30 -85 -144 -107 -144 -6 0 -20 -10 -30 -23 -25 -32 -87 -77 -105 -77 -9 0 -21 -7 -28 -15 -7 -9 -37 -27 -66 -41 -30 -14 -56 -29 -59 -35 -4 -5 -15 -9 -25 -9 -10 0 -25 -9 -33 -21 -15 -20 -121 -79 -144 -79 -6 0 -26 -12 -43 -26 -53 -45 -193 -61 -300 -34 -53 13 -253 102 -296 132 -22 15 -60 36 -86 47 -25 11 -68 41 -95 68 -65 66 -133 144 -133 154 0 4 -11 25 -25 45 -14 20 -25 43 -25 51 0 8 -7 28 -16 45 -16 32 -20 51 -27 143 -2 28 -6 55 -8 60 -1 6 0 20 5 32 4 13 2 31 -4 43 -7 14 -8 26 -2 33 5 7 12 39 16 72 10 94 13 116 25 175 7 30 13 69 14 87 2 18 13 46 25 62 12 17 23 38 25 48 1 10 6 24 10 31 5 6 5 17 2 22 -11 17 15 78 35 83 12 3 23 20 29 45 6 21 22 50 35 63 13 13 26 34 30 47 4 12 11 22 15 22 5 0 25 16 47 36 21 20 58 45 83 56 26 11 53 25 61 33 20 17 135 45 180 44 19 -1 48 6 64 14 26 14 60 15 103 2z m-382 -1856 c11 -17 2 -18 -19 -3 -17 12 -17 14 -4 14 9 0 20 -5 23 -11z"/>
 <path d="M4265 5631 c-27 -9 -63 -28 -78 -43 -16 -15 -35 -24 -43 -21 -8 3 -30 -9 -49 -26 -20 -17 -39 -31 -43 -31 -12 0 -82 -95 -110 -148 -14 -26 -33 -58 -43 -71 -26 -32 -24 -46 12 -96 38 -52 64 -65 115 -56 63 12 154 81 154 117 0 15 68 61 83 56 5 -1 11 7 14 18 3 11 13 20 22 20 9 0 22 5 28 11 7 7 37 20 68 31 54 18 129 18 173 0 45 -19 122 -80 131 -104 19 -53 106 -81 162 -53 46 24 89 66 89 87 0 42 -33 90 -91 128 -32 22 -61 50 -65 62 -8 28 -38 67 -65 86 -62 43 -366 65 -464 33z"/>
 <path d="M6150 5034 c-72 -28 -105 -55 -134 -109 -16 -29 -17 -40 -8 -60 6 -14 15 -24 19 -23 5 1 25 -6 46 -16 l39 -19 81 40 c86 43 92 43 220 30 90 -10 131 -21 214 -58 24 -11 45 -19 48 -19 3 0 33 -19 66 -42 33 -24 68 -47 78 -53 48 -28 253 -190 278 -219 15 -18 58 -56 96 -85 37 -29 67 -56 67 -59 0 -4 41 -52 91 -107 95 -105 193 -228 220 -276 9 -16 22 -36 30 -45 17 -21 69 -144 69 -164 0 -27 53 -70 87 -70 71 0 93 11 114 55 18 38 18 44 4 76 -20 43 -47 85 -137 210 -27 37 -48 71 -48 77 0 29 -255 323 -370 426 -25 23 -79 74 -121 114 -41 39 -78 72 -82 72 -14 0 -143 97 -236 176 -76 65 -230 133 -334 148 -27 4 -59 10 -70 13 -12 3 -76 7 -142 9 -108 2 -126 0 -185 -22z"/>
 <path d="M6694 3325 c-4 -8 -10 -13 -14 -10 -4 2 -15 -4 -25 -15 -10 -11 -24 -20 -30 -20 -17 0 -62 -94 -54 -111 3 -8 12 -25 18 -38 14 -27 18 -194 5 -232 -4 -13 -7 -34 -5 -46 3 -24 -30 -126 -60 -186 -10 -22 -19 -43 -19 -48 0 -6 -9 -22 -20 -37 -11 -15 -22 -46 -26 -69 -5 -36 -3 -45 19 -67 60 -60 207 -31 207 40 0 12 4 34 9 47 5 13 11 48 12 78 1 30 6 61 10 69 5 8 16 32 25 53 19 43 25 44 71 16 49 -31 142 -21 193 20 40 32 89 99 90 122 0 8 5 20 12 27 15 15 38 81 38 111 0 14 7 32 16 42 9 10 17 40 19 67 3 45 1 52 -29 81 -26 25 -38 30 -62 25 -48 -9 -109 -56 -110 -84 -3 -68 -51 -180 -77 -180 -18 0 -64 92 -61 120 14 128 13 136 -4 170 -13 26 -29 38 -67 52 -61 22 -74 22 -81 3z"/>
 <path d="M9017 3280 c-14 -11 -35 -36 -48 -56 -18 -30 -20 -44 -15 -95 7 -60 -8 -136 -40 -204 -24 -49 -13 -76 47 -118 30 -21 54 -41 55 -45 3 -26 23 -46 67 -68 43 -22 58 -25 103 -19 29 3 64 15 78 26 13 10 28 19 33 18 4 0 28 -24 53 -54 49 -59 61 -65 136 -65 46 0 53 3 91 43 22 23 44 53 48 67 4 14 15 41 25 60 10 19 28 62 41 95 12 33 28 69 36 80 7 11 13 25 13 33 0 12 37 71 53 83 4 3 16 23 28 45 l20 39 -37 33 c-53 46 -100 45 -154 -4 -43 -39 -104 -138 -116 -189 -11 -46 -66 -155 -78 -155 -16 0 -34 85 -23 105 5 9 10 30 12 47 3 16 9 35 14 42 8 10 6 32 -13 116 -3 14 -18 35 -33 48 -24 20 -35 22 -78 17 -42 -5 -56 -12 -89 -46 -38 -40 -38 -42 -33 -97 3 -31 1 -79 -5 -106 l-11 -51 -14 44 c-7 24 -11 53 -8 65 2 12 7 54 10 94 4 60 2 79 -15 111 -38 76 -101 101 -153 61z"/>
 <path d="M10435 3245 c-48 -34 -104 -98 -105 -120 0 -6 -5 -16 -12 -23 -14 -14 -18 -37 -19 -115 0 -46 6 -68 27 -105 45 -77 95 -131 128 -138 17 -4 37 -10 46 -15 8 -4 44 -15 79 -23 74 -18 87 -27 75 -53 -4 -10 -13 -47 -20 -83 -16 -86 -24 -122 -30 -139 -2 -8 -7 -48 -10 -90 -3 -42 -12 -101 -21 -131 -18 -68 -18 -92 2 -106 8 -6 15 -16 15 -22 0 -20 40 -33 87 -28 35 4 52 12 69 33 27 34 37 75 25 106 -18 46 4 248 39 372 7 22 15 63 20 90 4 28 11 61 14 75 4 14 8 30 10 35 10 42 58 176 82 231 26 59 54 49 54 -19 0 -18 9 -45 20 -62 11 -16 20 -39 20 -51 0 -20 9 -30 75 -91 35 -32 132 -83 158 -83 10 0 20 6 23 14 3 8 21 17 39 20 38 7 89 60 80 83 -3 8 4 28 16 44 11 16 19 35 16 42 -3 7 4 24 14 38 10 13 19 32 19 41 0 25 62 70 101 75 44 5 72 24 85 61 10 25 9 34 -2 43 -8 6 -12 15 -9 19 2 4 -8 19 -24 34 -41 40 -116 47 -157 14 -70 -56 -96 -70 -119 -64 -13 3 -26 15 -30 26 -16 49 -147 70 -190 30 -11 -11 -37 -26 -58 -35 -20 -8 -37 -20 -37 -25 0 -23 -17 -7 -34 31 -10 22 -28 45 -41 51 -28 13 -88 3 -105 -17 -7 -8 -20 -15 -29 -15 -9 0 -22 -5 -28 -11 -9 -9 -20 -5 -43 14 -17 15 -50 32 -73 38 -23 7 -48 17 -55 22 -7 6 -41 12 -75 14 -58 3 -66 0 -112 -32z m164 -171 c38 -22 71 -74 71 -112 0 -35 -14 -48 -50 -43 -38 5 -110 40 -111 54 0 6 -2 23 -4 37 -4 33 26 71 63 79 2 1 16 -6 31 -15z m626 -91 c11 -26 11 -35 0 -49 -20 -29 -45 -2 -40 44 4 46 3 44 16 40 6 -2 17 -18 24 -35z"/>
 <path d="M11822 3211 c-20 -21 -48 -58 -62 -81 -14 -23 -42 -60 -62 -82 -21 -22 -38 -44 -38 -48 0 -5 -16 -18 -35 -30 -19 -12 -35 -27 -35 -34 0 -7 -16 -28 -35 -47 -19 -19 -35 -38 -35 -43 0 -6 -11 -21 -24 -35 -13 -15 -27 -40 -31 -58 -12 -59 76 -122 122 -88 10 8 25 15 35 15 24 0 88 60 103 98 15 35 134 154 146 146 5 -3 11 -21 14 -42 4 -20 12 -53 20 -72 26 -67 28 -75 32 -105 3 -16 9 -34 14 -39 5 -6 9 -20 9 -33 0 -26 62 -73 98 -73 56 0 121 49 129 99 6 34 -11 75 -43 107 -38 39 -74 112 -81 169 -2 21 -7 44 -11 49 -3 6 -7 44 -8 86 -2 82 -30 150 -62 150 -10 0 -26 7 -36 15 -37 28 -82 19 -124 -24z"/>
 <path d="M13219 3225 c-9 -9 -26 -17 -38 -18 -26 -2 -52 -34 -81 -101 -11 -27 -26 -46 -35 -46 -9 0 -41 18 -71 41 -31 23 -68 42 -83 44 -14 1 -52 5 -85 10 -35 4 -67 3 -80 -3 -11 -5 -38 -17 -58 -26 -21 -10 -38 -21 -38 -27 0 -5 -12 -21 -27 -35 -25 -24 -28 -33 -31 -107 -4 -83 2 -107 38 -162 11 -16 23 -37 27 -45 13 -29 99 -112 129 -126 19 -8 59 -12 103 -11 l72 3 -7 -51 c-3 -27 -10 -59 -14 -70 -4 -11 -11 -42 -14 -69 -4 -27 -11 -57 -16 -66 -5 -10 -12 -32 -15 -51 -3 -19 -12 -52 -20 -74 -7 -22 -16 -58 -19 -79 -10 -64 -18 -90 -31 -106 -7 -8 -18 -32 -26 -52 -11 -33 -10 -41 7 -74 36 -69 116 -76 175 -16 34 36 51 79 63 162 12 81 76 372 87 391 6 11 8 27 5 35 -3 8 1 31 9 51 8 20 15 47 14 62 0 14 7 46 16 71 10 25 19 61 22 80 3 19 11 53 19 75 7 22 14 48 14 58 0 23 44 91 91 142 67 72 56 146 -28 189 -40 20 -55 20 -74 1z m-316 -290 c20 -24 37 -54 37 -67 0 -20 -6 -23 -48 -26 -126 -9 -116 -12 -125 41 -10 54 -2 71 47 91 40 17 45 14 89 -39z"/>
 <path d="M7377 3193 c-55 -42 -73 -73 -81 -133 -4 -30 -18 -75 -31 -100 -13 -25 -26 -62 -28 -82 -5 -32 -2 -41 24 -62 43 -36 95 -49 129 -31 36 19 79 70 86 103 3 15 9 34 14 44 5 9 7 32 3 51 -4 26 0 39 14 53 11 10 27 30 36 44 15 24 15 27 -14 73 -45 72 -92 85 -152 40z"/>
 <path d="M7788 3197 c-16 -9 -36 -33 -43 -52 -8 -18 -19 -36 -24 -39 -25 -16 21 -93 74 -126 37 -23 61 -20 142 16 80 36 89 118 21 186 -36 36 -42 39 -90 36 -28 -2 -64 -11 -80 -21z"/>
 <path d="M8590 3210 c-34 -9 -90 -39 -91 -48 -3 -30 -11 -58 -21 -70 -13 -15 -14 -24 -22 -113 -2 -31 -13 -70 -24 -89 -11 -18 -18 -38 -16 -45 3 -7 1 -16 -5 -20 -19 -11 -12 -30 23 -68 39 -43 66 -47 139 -19 60 23 69 37 95 142 25 106 26 252 0 288 -25 36 -50 50 -78 42z"/>
 <path d="M12415 3143 c-53 -14 -125 -81 -131 -123 -1 -8 -5 -26 -9 -40 -4 -14 -6 -41 -6 -61 1 -19 -8 -66 -20 -105 -12 -38 -21 -91 -21 -118 1 -64 23 -87 91 -94 41 -4 55 0 78 18 33 25 65 87 58 109 -3 9 1 53 8 98 11 69 19 88 50 126 41 50 47 89 19 124 -18 24 -82 74 -91 72 -3 -1 -15 -4 -26 -6z"/>
 <path d="M7853 2816 l-38 -44 -1 -103 c-2 -116 -18 -173 -74 -253 -24 -36 -29 -50 -21 -60 9 -10 8 -21 0 -40 -10 -22 -9 -32 7 -62 27 -51 69 -67 151 -58 62 6 66 8 79 40 9 21 14 68 13 131 -1 93 1 108 14 143 3 8 6 22 6 30 1 8 6 42 11 75 6 33 10 69 11 80 0 10 5 25 10 32 16 19 -7 78 -42 108 -46 38 -80 33 -126 -19z"/>
 <path d="M8784 2756 c-12 -9 -19 -27 -19 -48 -1 -48 -24 -108 -58 -151 -45 -57 -36 -127 19 -147 71 -28 155 2 188 66 28 52 30 172 4 201 -10 11 -18 27 -18 36 0 21 -47 57 -74 57 -12 0 -31 -6 -42 -14z"/>
 <path d="M7296 2692 c-3 -6 -15 -8 -26 -5 -24 6 -69 -40 -77 -79 -3 -16 -10 -31 -14 -34 -20 -12 -6 -44 35 -82 25 -23 56 -44 70 -48 33 -8 88 20 126 62 43 49 41 90 -7 143 -38 41 -94 64 -107 43z"/>
 <path d="M8440 2578 c-18 -13 -46 -39 -63 -60 l-29 -36 18 -32 c25 -41 93 -72 142 -64 49 8 66 18 91 52 17 25 18 33 8 63 -18 51 -25 59 -74 80 -55 24 -53 24 -93 -3z"/>
 <path d="M12225 2424 c-16 -8 -36 -21 -44 -29 -21 -21 -42 -88 -31 -99 6 -6 10 -18 10 -27 0 -38 135 -81 155 -49 3 6 17 10 30 10 33 0 68 46 60 80 -9 37 -57 92 -96 112 -42 21 -47 21 -84 2z"/>
 </g>
<g id="layer102" fill="#fffff9" stroke="none">
 <path d="M0 6000 l0 -6000 8000 0 8000 0 0 6000 0 6000 -8000 0 -8000 0 0 -6000z m3820 4029 c26 -21 52 -59 79 -113 22 -45 55 -99 74 -121 19 -22 44 -60 57 -85 12 -25 48 -81 78 -125 31 -44 73 -105 93 -135 21 -31 51 -68 68 -82 17 -15 38 -42 47 -60 15 -30 65 -97 135 -182 14 -17 53 -72 87 -122 34 -50 71 -99 82 -109 11 -10 20 -24 20 -31 0 -13 90 -94 126 -112 18 -9 30 -7 68 13 26 14 54 25 62 25 8 0 43 28 78 63 119 115 162 154 189 172 15 9 27 26 27 36 0 11 4 19 10 19 14 0 200 184 200 198 0 7 6 12 13 12 18 0 81 47 87 65 5 15 127 148 263 288 42 44 77 84 77 88 0 5 20 30 45 55 36 38 53 48 90 54 95 14 134 -11 137 -87 2 -46 -1 -56 -27 -83 -16 -16 -38 -30 -48 -30 -11 0 -45 -19 -76 -42 -57 -43 -191 -176 -191 -190 0 -4 -5 -8 -12 -8 -6 0 -50 -40 -97 -89 -47 -49 -91 -90 -97 -92 -18 -6 -144 -127 -144 -139 0 -5 -5 -10 -10 -10 -12 0 -150 -139 -150 -152 0 -4 -14 -21 -31 -36 -39 -34 -203 -188 -238 -223 -41 -42 -55 -61 -58 -80 -5 -31 -60 -77 -86 -72 -38 7 -78 -33 -81 -83 -2 -23 -7 -47 -10 -53 -8 -13 -11 -33 -31 -260 -8 -90 -12 -167 -9 -172 3 -5 -1 -19 -7 -31 -11 -20 -20 -147 -19 -241 0 -16 -3 -34 -7 -40 -5 -7 -9 -28 -10 -47 -1 -19 -3 -42 -4 -50 0 -8 0 -28 1 -45 1 -16 -1 -52 -5 -80 -8 -61 2 -90 49 -140 20 -21 36 -41 36 -44 0 -12 74 -77 173 -150 54 -40 107 -86 119 -102 12 -16 27 -29 33 -29 6 0 30 -16 52 -35 23 -19 44 -35 48 -35 8 0 74 -53 139 -111 28 -26 71 -55 96 -66 25 -11 51 -27 59 -36 7 -10 17 -17 21 -17 4 0 44 -25 88 -54 45 -30 101 -64 125 -75 25 -11 73 -39 108 -62 35 -23 77 -43 94 -44 39 -3 91 -29 100 -52 24 -60 23 -81 -7 -110 -21 -20 -42 -29 -81 -33 -66 -6 -83 2 -132 64 -27 34 -60 61 -100 81 -33 17 -88 48 -122 70 -162 104 -212 135 -218 135 -4 0 -43 32 -86 70 -44 39 -86 70 -94 70 -13 0 -86 55 -178 133 -21 17 -51 39 -66 47 -15 8 -47 31 -71 51 -25 20 -52 39 -60 43 -8 3 -28 15 -45 26 -80 52 -83 53 -101 25 -12 -19 -15 -41 -12 -90 3 -36 1 -68 -4 -71 -5 -3 -9 -27 -7 -53 1 -25 -1 -53 -4 -61 -7 -19 -18 -108 -24 -185 -12 -177 -25 -299 -33 -314 -11 -22 -2 -59 22 -91 14 -18 41 -30 103 -45 46 -11 87 -23 91 -28 4 -4 16 -7 27 -7 11 0 35 -11 53 -25 18 -14 38 -25 44 -25 7 0 25 -11 42 -25 16 -14 36 -25 45 -25 8 0 45 -28 81 -63 37 -35 86 -76 109 -91 39 -26 85 -76 179 -193 17 -21 41 -65 53 -98 13 -33 29 -73 37 -90 14 -30 16 -40 35 -155 5 -36 16 -76 23 -90 8 -14 12 -41 11 -60 -1 -19 4 -48 12 -63 8 -16 12 -31 10 -34 -3 -2 -2 -17 3 -33 5 -17 4 -32 -3 -39 -6 -6 -11 -47 -12 -92 l-2 -81 39 -37 c42 -41 86 -144 70 -164 -5 -7 -15 -29 -21 -49 -7 -21 -26 -47 -42 -59 -32 -23 -69 -86 -62 -107 6 -16 -19 -102 -27 -97 -10 6 -80 -55 -80 -69 0 -7 -9 -21 -20 -31 -11 -10 -20 -24 -20 -31 0 -7 -9 -18 -20 -24 -11 -6 -20 -21 -20 -33 0 -13 -5 -28 -10 -33 -6 -6 -12 -24 -14 -40 -9 -64 -19 -83 -57 -109 -22 -14 -37 -30 -34 -35 9 -14 -55 -50 -87 -50 -18 0 -33 -8 -43 -23 -8 -13 -33 -29 -55 -36 -22 -7 -55 -25 -74 -41 -18 -17 -38 -30 -44 -30 -6 0 -15 -6 -19 -14 -9 -14 -126 -101 -171 -126 -15 -8 -38 -15 -52 -16 -14 -2 -43 -5 -66 -9 -29 -4 -54 0 -88 16 -65 28 -164 27 -251 -4 -22 -8 -44 -13 -50 -11 -5 1 -23 5 -38 8 -15 4 -59 37 -99 76 -39 39 -76 70 -83 70 -7 0 -26 7 -41 15 -16 8 -36 15 -44 15 -21 1 -59 32 -73 60 -14 29 -246 230 -264 230 -15 0 -73 83 -73 104 0 8 -8 21 -19 28 -10 7 -19 16 -19 21 -3 19 -65 133 -90 166 -26 33 -71 118 -86 165 -4 10 -1 25 5 32 7 9 9 31 6 56 -5 35 -1 48 24 85 17 24 36 43 43 43 7 0 25 9 39 20 21 17 24 26 21 62 -10 104 -12 266 -3 303 6 22 10 78 11 125 0 47 4 90 8 95 8 12 22 61 26 92 2 12 8 31 14 42 5 11 13 42 16 68 3 26 11 52 18 57 25 22 63 82 80 128 19 51 37 78 106 160 44 53 131 128 148 128 5 0 29 16 53 35 32 25 54 35 80 35 20 0 42 7 49 15 7 8 22 15 35 15 12 0 25 3 29 8 4 4 11 7 14 8 4 0 21 6 37 13 17 7 54 14 83 15 29 2 55 6 59 9 3 4 25 7 47 7 34 0 45 5 67 33 32 41 41 63 44 110 1 21 7 48 13 60 6 12 16 96 23 187 6 91 13 181 15 200 6 48 12 151 16 240 3 63 0 78 -17 98 l-20 23 -47 -26 c-27 -15 -50 -31 -53 -36 -4 -5 -15 -9 -26 -9 -10 0 -27 -8 -37 -17 -34 -34 -188 -113 -219 -113 -7 0 -16 -7 -19 -15 -4 -8 -16 -15 -28 -15 -12 0 -26 -4 -31 -9 -6 -5 -86 -48 -180 -96 -93 -48 -175 -91 -182 -97 -7 -5 -18 -11 -25 -12 -7 -1 -20 -6 -28 -11 -8 -5 -40 -22 -70 -38 -30 -16 -59 -34 -65 -40 -5 -7 -28 -18 -50 -26 -22 -7 -56 -25 -75 -40 -19 -14 -39 -25 -44 -23 -5 2 -16 -3 -25 -10 -20 -16 -55 -36 -101 -59 -19 -9 -44 -27 -54 -38 -11 -12 -24 -21 -30 -21 -14 0 -86 -71 -86 -86 0 -6 -21 -15 -47 -20 -103 -17 -110 -14 -148 53 -18 30 -18 34 -1 70 19 42 77 89 100 80 8 -3 25 2 38 12 13 10 41 24 63 32 22 7 51 22 65 31 14 10 35 19 47 21 13 2 33 12 45 23 13 11 42 27 66 34 23 7 47 19 53 27 6 7 18 13 26 13 8 0 31 11 51 25 20 14 40 25 45 25 17 0 102 43 151 76 27 19 56 32 63 30 7 -3 22 3 33 14 11 11 26 20 34 20 24 0 81 28 100 49 11 12 26 21 34 21 7 0 26 8 40 19 15 10 38 21 52 24 14 4 47 25 74 47 31 26 57 40 68 37 10 -3 21 1 26 8 4 7 26 22 50 34 23 12 42 26 42 31 0 5 11 12 25 16 14 3 30 15 36 25 5 10 13 18 17 16 4 -1 31 22 60 51 51 50 92 67 107 43 10 -17 56 -5 91 23 34 27 34 27 34 114 0 48 2 130 6 182 3 52 7 120 9 150 1 30 4 57 5 60 2 3 4 48 5 100 4 153 16 338 28 410 1 8 6 20 10 26 4 7 -2 36 -12 66 -14 41 -19 81 -18 156 1 68 -3 106 -11 114 -6 6 -12 24 -12 40 0 29 -28 80 -108 198 -29 41 -59 86 -69 100 -9 14 -41 61 -70 106 -29 44 -62 89 -73 99 -11 10 -20 24 -20 31 0 6 -13 20 -29 31 -26 16 -131 159 -131 178 0 4 -12 22 -27 41 -16 18 -36 43 -45 56 -36 48 -84 112 -116 157 -57 78 -122 150 -142 156 -22 7 -55 59 -62 100 -6 28 21 92 46 107 28 19 87 8 126 -23z m2657 -5002 c11 -3 43 -9 70 -13 104 -15 258 -83 334 -148 97 -83 222 -176 238 -176 4 0 93 -84 197 -187 172 -170 354 -378 354 -405 0 -6 21 -40 48 -77 90 -125 117 -167 137 -210 14 -31 14 -38 0 -67 -15 -33 -38 -44 -92 -44 -33 0 -73 29 -73 53 0 22 -53 140 -85 188 -40 61 -110 153 -159 209 -137 158 -166 189 -210 230 -27 25 -83 77 -125 116 -68 62 -246 202 -292 229 -10 6 -45 29 -78 53 -33 23 -63 42 -66 42 -3 0 -24 8 -48 19 -83 37 -124 48 -214 58 -128 13 -134 13 -220 -30 l-82 -41 -46 24 c-50 26 -53 36 -26 81 24 39 51 58 121 86 48 19 71 21 175 19 66 -2 130 -6 142 -9z m292 -1723 c41 -13 50 -21 60 -52 8 -22 10 -55 6 -82 -13 -84 -12 -95 13 -140 34 -61 41 -70 63 -70 32 0 95 135 91 197 -2 23 44 56 95 67 23 5 33 2 49 -16 28 -32 29 -72 5 -119 -12 -22 -21 -50 -21 -62 0 -26 -21 -89 -36 -108 -6 -8 -18 -31 -28 -52 -26 -57 -77 -103 -122 -110 -65 -11 -95 -8 -130 14 -37 23 -79 22 -80 -1 0 -15 -17 -62 -32 -90 -4 -8 -9 -35 -10 -60 -2 -37 -13 -100 -27 -156 -5 -18 -81 -37 -119 -30 -53 10 -69 31 -62 80 4 23 15 53 26 68 11 15 20 31 20 37 0 5 9 26 19 48 30 60 63 162 60 186 -2 12 1 33 5 46 13 38 9 205 -5 232 -6 13 -15 31 -19 39 -12 25 61 125 92 125 4 0 13 6 20 13 15 15 10 15 67 -4z m2342 -34 c10 -6 28 -28 39 -50 17 -33 19 -50 13 -117 -3 -43 -6 -94 -6 -114 0 -44 23 -94 43 -94 21 0 40 97 34 165 -6 51 -4 57 25 86 60 61 152 57 167 -7 19 -79 21 -105 13 -115 -5 -7 -11 -26 -14 -42 -2 -17 -7 -38 -12 -47 -13 -22 9 -106 30 -119 12 -8 21 -7 31 4 19 19 76 135 76 154 0 28 70 148 106 182 44 42 94 46 138 10 l30 -23 -52 -77 c-29 -43 -52 -83 -52 -90 0 -6 -6 -20 -13 -31 -8 -11 -24 -47 -37 -80 -38 -100 -73 -168 -105 -207 -28 -36 -33 -38 -90 -38 l-59 0 -58 60 c-31 33 -60 60 -63 60 -4 0 -18 -9 -31 -19 -40 -31 -123 -37 -171 -13 -42 22 -62 41 -60 57 0 6 -24 27 -53 48 -53 36 -70 68 -51 91 22 27 46 144 43 215 -2 60 2 80 19 107 32 52 75 68 120 44z m1511 -27 c7 -5 32 -15 55 -22 23 -6 56 -23 73 -38 23 -19 34 -23 43 -14 6 6 18 11 26 11 8 0 22 7 31 15 28 26 87 31 110 10 11 -10 20 -24 20 -30 0 -7 8 -23 18 -35 l18 -22 39 25 c22 14 51 35 66 46 21 16 75 26 125 22 7 -1 30 -19 53 -41 22 -22 48 -40 56 -40 16 0 53 23 109 68 25 20 38 23 79 19 47 -5 92 -31 82 -47 -3 -4 1 -13 9 -19 11 -9 12 -18 3 -41 -11 -30 -26 -39 -70 -44 -48 -5 -115 -61 -117 -96 0 -8 -9 -26 -19 -39 -10 -14 -17 -31 -14 -38 3 -7 -5 -26 -16 -42 -12 -16 -19 -35 -16 -43 8 -24 -33 -61 -73 -64 -21 -1 -36 -7 -34 -13 5 -24 -31 -22 -83 5 -30 15 -55 30 -55 34 0 3 -20 20 -45 38 -31 22 -45 39 -45 55 0 12 -8 33 -17 47 -9 13 -20 48 -24 78 -4 30 -12 59 -18 65 -15 15 -57 -16 -74 -55 -25 -57 -73 -190 -83 -233 -2 -5 -6 -21 -10 -35 -3 -14 -10 -47 -14 -75 -5 -27 -13 -68 -20 -90 -37 -128 -56 -314 -38 -372 7 -25 5 -40 -8 -68 -19 -41 -35 -51 -87 -54 -28 -1 -39 3 -44 16 -3 10 -15 26 -25 36 -13 13 -16 23 -9 35 14 28 30 112 36 188 2 40 7 78 10 85 5 17 13 54 29 139 7 36 16 73 21 83 12 29 -22 55 -95 73 -36 8 -74 19 -85 24 -11 5 -31 12 -44 16 -30 8 -62 43 -102 111 -24 43 -30 63 -30 110 1 74 5 98 17 115 5 7 16 24 22 38 20 38 33 53 81 88 41 29 50 32 107 29 35 -2 69 -8 76 -14z m1334 -32 c55 -30 66 -52 68 -139 1 -43 5 -82 8 -88 4 -5 9 -28 11 -49 7 -58 44 -134 84 -177 67 -70 46 -157 -43 -174 -48 -9 -104 18 -104 51 0 11 -4 25 -9 31 -5 5 -11 23 -14 39 -4 32 -10 51 -33 103 -8 18 -14 42 -14 53 0 28 -27 89 -40 89 -17 0 -150 -137 -163 -168 -13 -32 -67 -82 -88 -82 -8 0 -22 -7 -32 -15 -24 -18 -67 -10 -90 17 -23 27 -15 73 19 109 13 14 24 28 24 30 0 8 52 67 133 152 38 40 76 86 84 102 19 35 71 105 93 122 22 18 65 16 106 -6z m1327 -2 c12 -6 32 -20 43 -31 33 -30 22 -92 -25 -143 -47 -51 -91 -119 -91 -142 0 -10 -7 -36 -14 -58 -8 -22 -16 -56 -19 -75 -3 -19 -12 -55 -22 -80 -9 -25 -16 -57 -16 -71 1 -15 -6 -42 -14 -62 -8 -20 -12 -43 -9 -51 3 -8 1 -24 -5 -35 -11 -20 -74 -307 -91 -411 -11 -70 -18 -88 -48 -125 -17 -21 -37 -32 -64 -36 -35 -5 -44 -2 -69 23 -16 16 -29 38 -29 48 0 22 26 87 39 94 8 5 16 36 28 111 3 17 11 48 18 70 8 22 17 55 20 74 3 19 10 41 15 50 4 9 11 37 15 61 3 25 10 59 16 76 5 16 10 55 12 85 l2 54 -78 -2 c-43 -1 -89 2 -103 7 -23 9 -106 87 -118 112 -3 7 -15 27 -26 43 -34 52 -40 74 -40 149 0 67 3 77 31 112 51 65 108 89 185 79 33 -5 71 -9 85 -10 15 -2 52 -21 83 -44 30 -23 61 -41 69 -41 19 0 39 26 70 90 19 40 32 56 48 57 11 1 31 9 43 17 26 18 32 19 59 5z m-5810 -17 c10 -4 29 -26 42 -49 l25 -41 -36 -43 c-31 -38 -35 -48 -30 -80 3 -21 2 -41 -4 -44 -5 -3 -10 -16 -10 -28 0 -32 -35 -84 -68 -101 -32 -17 -74 -10 -118 18 -19 13 -22 22 -18 53 3 21 16 59 30 84 13 25 26 70 30 100 6 57 19 79 68 117 29 22 56 26 89 14z m475 -21 c33 -33 46 -93 28 -124 -12 -19 -47 -38 -108 -57 -32 -10 -42 -9 -69 7 -40 24 -73 92 -54 113 7 8 16 25 20 38 9 30 43 46 103 50 44 3 53 -1 80 -27z m718 -121 c1 -74 -4 -122 -20 -183 -21 -80 -23 -82 -66 -104 -45 -22 -96 -29 -115 -15 -6 4 -19 20 -28 35 -14 22 -16 32 -7 42 7 8 9 18 6 23 -3 5 4 23 15 42 12 19 23 58 25 89 8 89 9 98 22 113 6 8 13 24 15 36 4 30 17 41 63 57 37 13 40 12 64 -11 22 -22 24 -32 26 -124z m3810 58 c67 -52 71 -87 16 -157 -33 -42 -40 -59 -50 -131 -7 -45 -9 -86 -6 -92 8 -12 -20 -70 -45 -92 -16 -15 -31 -18 -71 -14 -28 3 -56 10 -61 15 -18 18 -13 106 10 177 12 39 21 86 20 105 0 20 2 47 6 61 4 14 8 32 10 40 8 49 67 96 136 109 4 0 19 -9 35 -21z m-4509 -283 c27 -19 49 -81 34 -98 -5 -7 -10 -22 -10 -32 -1 -11 -5 -47 -11 -80 -5 -33 -10 -67 -11 -75 0 -8 -3 -22 -6 -30 -13 -35 -15 -50 -14 -142 1 -134 -4 -144 -76 -153 -69 -8 -103 3 -128 41 -15 23 -16 33 -7 58 8 21 8 33 1 42 -8 10 -2 25 21 60 55 79 72 137 74 251 1 97 2 103 31 137 33 40 66 46 102 21z m894 -85 c10 -6 19 -18 19 -27 0 -9 7 -24 15 -33 22 -25 30 -111 15 -164 -19 -70 -49 -91 -126 -91 -47 0 -67 4 -74 15 -17 27 -8 84 20 120 32 41 54 102 54 145 -1 43 32 58 77 35z m-1468 -102 c49 -58 29 -126 -49 -163 -44 -21 -73 -14 -119 26 -34 30 -45 62 -25 74 6 3 10 14 10 24 0 29 40 73 61 68 11 -3 22 -1 25 5 12 19 69 -1 97 -34z m1141 -77 c29 -13 41 -26 51 -55 12 -33 11 -42 -2 -62 -38 -58 -169 -47 -203 16 -14 25 16 72 64 101 37 22 40 22 90 0z m3769 -156 c82 -34 115 -155 42 -155 -13 0 -27 -4 -30 -10 -10 -16 -83 -12 -110 6 -14 9 -25 25 -25 35 0 10 -4 20 -9 23 -18 12 16 80 50 98 41 22 38 22 82 3z"/>
 <path d="M4415 6008 c-5 -12 -15 -13 -48 -7 -28 5 -50 3 -67 -5 -14 -6 -44 -13 -67 -14 -58 -4 -180 -37 -201 -54 -9 -8 -37 -25 -62 -36 -78 -38 -187 -153 -206 -219 -8 -27 -16 -38 -30 -38 -10 0 -19 -4 -19 -10 -1 -5 -7 -27 -14 -47 -7 -21 -10 -42 -6 -48 3 -5 3 -16 -2 -22 -4 -7 -9 -21 -10 -31 -2 -10 -13 -31 -25 -48 -12 -16 -23 -44 -25 -62 -1 -18 -7 -57 -14 -87 -12 -59 -15 -81 -25 -175 -4 -33 -11 -65 -16 -72 -6 -7 -5 -19 2 -33 6 -12 8 -30 4 -43 -5 -12 -6 -26 -5 -32 2 -5 6 -32 8 -60 7 -92 11 -111 27 -143 9 -17 16 -37 16 -45 0 -8 11 -31 25 -51 14 -20 25 -42 25 -48 0 -6 17 -29 38 -52 22 -22 63 -67 92 -98 34 -37 73 -67 109 -84 31 -14 73 -38 95 -52 44 -30 244 -119 296 -132 101 -25 252 -10 293 29 13 11 40 27 62 35 62 22 150 73 147 85 -1 6 7 11 17 11 11 0 22 4 26 9 3 6 29 21 59 35 29 14 59 32 66 41 7 8 19 15 26 15 23 0 92 47 110 75 9 14 24 25 34 25 10 0 27 15 39 33 11 17 34 50 51 71 16 21 30 48 30 59 0 12 9 31 21 43 15 16 21 37 23 81 2 32 9 69 16 83 16 28 20 89 8 106 -4 6 -10 60 -13 120 -2 60 -11 127 -19 149 -9 22 -15 52 -16 67 0 15 -4 30 -10 33 -5 3 -17 23 -26 43 -8 20 -23 53 -32 72 -8 19 -15 39 -14 43 3 12 -163 179 -228 231 -30 24 -68 55 -83 70 -15 14 -32 26 -37 26 -6 0 -31 15 -57 33 -57 40 -130 78 -158 82 -11 2 -35 8 -54 14 -19 6 -38 8 -43 5 -5 -3 -14 -1 -21 4 -7 6 -28 11 -47 13 -19 2 -41 7 -47 12 -9 6 -15 4 -18 -5z m234 -402 c72 -17 101 -40 132 -103 13 -28 32 -48 54 -58 60 -29 95 -75 95 -126 0 -31 -84 -79 -130 -74 -52 5 -76 20 -84 49 -7 27 -120 112 -164 122 -15 4 -32 11 -39 16 -7 5 -14 5 -17 -1 -3 -5 -14 -7 -24 -4 -19 4 -125 -27 -165 -50 -12 -7 -36 -23 -54 -37 -18 -14 -46 -35 -63 -48 -16 -13 -30 -29 -30 -36 0 -31 -87 -91 -144 -99 -37 -6 -43 -3 -78 34 -41 43 -47 68 -21 94 9 9 29 42 44 73 31 64 94 142 114 142 7 0 20 12 30 26 12 19 22 24 39 20 17 -4 32 2 52 22 52 49 103 60 254 57 75 -2 163 -10 199 -19z"/>
 <path d="M3961 4136 c-9 -11 -3 -19 35 -41 55 -33 73 -22 38 23 -27 34 -54 41 -73 18z"/>
 <path d="M10545 3100 c-34 -14 -63 -63 -59 -100 2 -18 9 -39 15 -46 16 -19 67 -43 112 -54 32 -7 42 -5 58 11 42 42 7 141 -64 179 -20 11 -38 20 -39 19 -2 0 -12 -4 -23 -9z"/>
 <path d="M11174 3029 c-4 -7 -8 -29 -10 -49 -3 -29 2 -42 22 -61 l26 -24 24 28 c20 24 22 31 12 55 -24 54 -57 78 -74 51z"/>
 <path d="M11265 2851 c-7 -12 12 -24 25 -16 11 7 4 25 -10 25 -5 0 -11 -4 -15 -9z"/>
 <path d="M12815 2995 c-16 -7 -40 -24 -53 -38 -20 -21 -23 -31 -17 -70 4 -25 16 -54 26 -63 17 -16 26 -16 82 -6 34 7 71 11 82 9 16 -2 21 5 23 33 2 28 -4 43 -28 69 -16 19 -30 38 -30 43 0 4 -12 14 -27 21 -23 12 -33 12 -58 2z"/>
 </g>

</svg>